D:\school\WTK\thesis\model\3dpredictsim\Results\debug_batch\Pog_s1_tmt_bCst_d00_k1000_ig24_pas_GRF.mot
nRows=12
nColumns=19

name D:\school\WTK\thesis\model\3dpredictsim\Results\debug_batch\Pog_s1_tmt_bCst_d00_k1000_ig24_pas_GRF.mot
datacolumns 19
datarows 12
range 0.0000000000 0.1223282101
endheader
time 	ground_force_vx	ground_force_vy	ground_force_vz	ground_force_px	ground_force_py	ground_force_pz	1_ground_force_vx	1_ground_force_vy	1_ground_force_vz	1_ground_force_px	1_ground_force_py	1_ground_force_pz	ground_torque_x	ground_torque_y	ground_torque_z	1_ground_torque_x	1_ground_torque_y	1_ground_torque_z
        0.0000000000	      -86.3234138071	       79.4744438792	       35.5582279421	        0.1791975101	        0.0000000000	        0.0382863728	       96.4043788719	      520.1969835468	       -3.7176604778	       -0.3130590912	        0.0000000000	       -0.0369698275	        0.0000000000	        0.0000000000	        0.0000000000	        0.0000000000	        0.0000000000	        0.0000000000	
        0.0111207464	      -80.0658856183	      173.8953757024	       74.9959576322	        0.1852571312	        0.0000000000	        0.0366679682	       80.4556180213	      441.9807886275	       -8.4459257517	       -0.3097305952	        0.0000000000	       -0.0361034770	        0.0000000000	        0.0000000000	        0.0000000000	        0.0000000000	        0.0000000000	        0.0000000000	
        0.0222414928	      -36.1593077875	      314.9623215269	       16.4167042447	        0.1886129785	        0.0000000000	        0.0345984589	       64.7429593316	      357.4945621648	       -6.9959695993	       -0.3048574182	        0.0000000000	       -0.0344489864	        0.0000000000	        0.0000000000	        0.0000000000	        0.0000000000	        0.0000000000	        0.0000000000	
        0.0333622391	      -37.1858364989	      445.1317749069	        0.0350932611	        0.1915911666	        0.0000000000	        0.0347667213	       42.5338185225	      266.4139106598	       -4.9199400329	       -0.2970005821	        0.0000000000	       -0.0313247135	        0.0000000000	        0.0000000000	        0.0000000000	        0.0000000000	        0.0000000000	        0.0000000000	
        0.0444829855	      -70.3843682137	      596.8229017275	       -4.8490848360	        0.1988726446	        0.0000000000	        0.0369968400	       17.5228036671	      174.6562729647	       -8.7799194758	       -0.2830092622	        0.0000000000	       -0.0251182649	        0.0000000000	        0.0000000000	        0.0000000000	        0.0000000000	        0.0000000000	        0.0000000000	
        0.0556037319	      -96.4204697116	      725.1903415640	       -9.3226734056	        0.2054999047	        0.0000000000	        0.0389862219	        3.3890065928	      133.3570927937	      -12.7172985741	       -0.2759061511	        0.0000000000	       -0.0215410834	        0.0000000000	        0.0000000000	        0.0000000000	        0.0000000000	        0.0000000000	        0.0000000000	
        0.0667244783	     -105.7456234335	      789.2456561302	      -11.3567953651	        0.2101842753	        0.0000000000	        0.0402691985	        1.5693886323	      102.1976470308	      -13.0480467709	       -0.2753414961	        0.0000000000	       -0.0216116965	        0.0000000000	        0.0000000000	        0.0000000000	        0.0000000000	        0.0000000000	        0.0000000000	
        0.0778452246	     -103.6797845258	      802.6405508457	      -12.0539080743	        0.2136473041	        0.0000000000	        0.0410816254	       -2.4049455776	       65.9322034372	      -11.7309938386	       -0.2748557399	        0.0000000000	       -0.0216418471	        0.0000000000	        0.0000000000	        0.0000000000	        0.0000000000	        0.0000000000	        0.0000000000	
        0.0889659710	      -96.9306185825	      792.8105492714	      -12.1954584056	        0.2166211342	        0.0000000000	        0.0415827773	       -7.9030912537	       26.8836907139	       -5.7342564737	       -0.2751574529	        0.0000000000	       -0.0213050115	        0.0000000000	        0.0000000000	        0.0000000000	        0.0000000000	        0.0000000000	        0.0000000000	
        0.1000867174	      -87.9348148943	      778.9475412613	      -13.0516877933	        0.2197873239	        0.0000000000	        0.0418467568	        0.0949795915	       -0.0932987934	        0.0019076609	        0.0000000000	        0.0000000000	        0.0000000000	        0.0000000000	        0.0000000000	        0.0000000000	        0.0000000000	        0.0000000000	        0.0000000000	
        0.1112074638	      -76.5581838889	      757.1086532367	      -14.0679384264	        0.2231021674	        0.0000000000	        0.0419852365	        0.0001725125	       -0.0001382793	       -0.0000097092	        0.0000000000	        0.0000000000	        0.0000000000	        0.0000000000	        0.0000000000	        0.0000000000	        0.0000000000	        0.0000000000	        0.0000000000	
        0.1223282101	      -66.4544343287	      731.2722963409	      -14.6349724813	        0.2270288656	        0.0000000000	        0.0420411840	        0.0000728918	       -0.0000506603	       -0.0000053676	        0.0000000000	        0.0000000000	        0.0000000000	        0.0000000000	        0.0000000000	        0.0000000000	        0.0000000000	        0.0000000000	        0.0000000000	
